<svg xmlns="http://www.w3.org/2000/svg" version="1.1" id="Layer_1" data-name="Layer 1" viewBox="0 0 220 220" sodipodi:docname="vertical_black.svg" width="220" height="220" inkscape:version="1.3.2 (091e20e, 2023-11-25)" xmlns:inkscape="http://www.inkscape.org/namespaces/inkscape" xmlns:sodipodi="http://sodipodi.sourceforge.net/DTD/sodipodi-0.dtd" xmlns:svg="http://www.w3.org/2000/svg" xmlns:rdf="http://www.w3.org/1999/02/22-rdf-syntax-ns#" xmlns:cc="http://creativecommons.org/ns#" xmlns:dc="http://purl.org/dc/elements/1.1/"><metadata><rdf:RDF xmlns:rdf="http://www.w3.org/1999/02/22-rdf-syntax-ns#" xmlns:dc="http://purl.org/dc/elements/1.1/"><rdf:Description><dc:creator>RealFaviconGenerator</dc:creator><dc:source>https://realfavicongenerator.net</dc:source></rdf:Description></rdf:RDF></metadata><sodipodi:namedview id="namedview10" pagecolor="#ffffff" bordercolor="#000000" borderopacity="0.25" inkscape:showpageshadow="2" inkscape:pageopacity="0.0" inkscape:pagecheckerboard="0" inkscape:deskcolor="#d1d1d1" inkscape:zoom="0.99319263" inkscape:cx="129.38074" inkscape:cy="272.85744" inkscape:window-width="912" inkscape:window-height="1101" inkscape:window-x="1660" inkscape:window-y="1479" inkscape:window-maximized="0" inkscape:current-layer="Layer_1"></sodipodi:namedview><defs id="defs1">
    <style id="style1">.cls-1{fill:#fff;}</style>
  </defs><title id="title1">vertical_black</title><rect width="220" height="220" id="rect1" x="0" y="0" style="stroke-width:0.562084"></rect><path class="cls-1" d="m 20.51524,98.59 84.4,84.41 -45.92,-91.81 4.55,-1.87 48.31,96.61 48.3,-96.59 4.54,1.87 -45.91,91.82 84.4,-84.44 -91.33,-37.58 z m 91.34,-42.88 88.89,-36.6 -26.89,53.78 -4.54,-1.87 21.19,-42.43 -72.22,29.77 93.57,38.53 -100,100 v 0 l -100,-100 93.57,-38.53 -72.23,-29.77 21.17,42.34 -4.51,1.91 -26.9,-53.73 z" id="path1"></path><metadata id="metadata10">
    <rdf:rdf>
      <cc:work rdf:about="">
        <dc:title>vertical_black</dc:title>
      </cc:work>
    </rdf:rdf>
  </metadata><path style="fill:none;stroke:#f9f9f9;stroke-width:3.57789;stroke-dasharray:none" d="M 92.1126,153.42444 V 76.386412 h 48.53396" id="path10"></path><path style="fill:none;stroke:#f9f9f9;stroke-width:3.57789;stroke-dasharray:none" d="M 135.2539,117.21657 H 92.1126" id="path11"></path></svg>